<?xml version="1.0" standalone="no"?>
<!DOCTYPE svg PUBLIC "-//W3C//DTD SVG 20010904//EN"
 "http://www.w3.org/TR/2001/REC-SVG-20010904/DTD/svg10.dtd">
<svg version="1.0" xmlns="http://www.w3.org/2000/svg"
 width="248.000000pt" height="40.000000pt" viewBox="0 0 248.000000 40.000000"
 preserveAspectRatio="xMidYMid meet">
<metadata>
Created by potrace 1.16, written by Peter Selinger 2001-2019
</metadata>
<g transform="translate(0.000000,40.000000) scale(0.100000,-0.100000)"
fill="#000000" stroke="none">
<path d="M0 270 c0 -72 3 -130 8 -130 23 1 52 14 52 24 0 8 32 18 80 25 55 9
80 18 80 27 0 8 -7 14 -15 14 -20 0 -19 36 2 44 9 4 20 1 25 -6 5 -9 8 -6 8
10 0 21 4 22 68 22 37 0 92 7 122 15 88 24 180 31 180 14 0 -11 2 -11 10 1 8
12 10 11 10 -8 0 -20 4 -22 33 -17 17 3 147 26 287 50 l255 43 -602 1 -603 1
0 -130z"/>
<path d="M1268 378 c-2 -15 -14 -24 -41 -32 -22 -6 -35 -14 -31 -19 4 -4 -10
-1 -30 6 -26 9 -55 11 -90 5 -28 -4 -90 -12 -138 -19 -49 -6 -88 -14 -88 -18
0 -4 10 -7 23 -7 104 -1 129 -13 40 -20 -76 -5 -80 -6 -43 -13 19 -3 36 -12
36 -18 1 -7 2 -20 3 -28 0 -8 10 -15 21 -15 15 0 20 7 20 29 0 17 6 31 16 35
30 12 240 6 317 -9 94 -18 119 -19 97 -5 -18 11 -15 14 36 28 49 14 131 16 99
2 -18 -8 -17 -9 8 -9 17 -1 27 -6 27 -16 0 -12 -15 -15 -72 -16 -75 -1 -69 -5
35 -23 32 -6 38 -11 35 -29 -3 -20 -9 -22 -89 -25 -78 -2 -87 -1 -91 16 -4 16
-25 22 -117 37 -61 10 -115 15 -118 11 -4 -4 -7 -19 -8 -34 l0 -27 -160 0
c-88 0 -177 4 -197 8 -34 7 -38 11 -38 37 0 25 -4 30 -25 30 -21 0 -25 -5 -25
-29 0 -28 -3 -30 -55 -41 -30 -6 -69 -10 -87 -8 -29 3 -33 7 -36 36 l-3 32
-101 0 -100 0 4 30 c4 26 1 30 -17 30 -20 0 -22 -5 -21 -42 1 -42 2 -43 38
-46 25 -2 38 -8 38 -18 0 -16 -26 -19 -35 -4 -5 8 -11 7 -21 -1 -7 -6 -20 -9
-28 -6 -7 3 -18 1 -24 -5 -7 -7 -17 -6 -32 2 -12 7 -20 8 -16 2 6 -11 -51 -25
-65 -16 -5 3 -9 0 -9 -5 0 -6 11 -11 24 -11 14 0 28 -5 31 -10 7 -12 55 -14
55 -2 0 4 42 8 93 9 l92 1 -63 -12 c-34 -8 -65 -16 -69 -20 -11 -11 280 5 367
21 99 17 95 17 183 15 50 -2 67 -6 67 -16 0 -9 -17 -17 -52 -21 -105 -15 -95
-26 17 -21 100 5 108 4 85 -9 -23 -14 -19 -15 50 -9 77 6 267 30 308 39 19 5
22 1 23 -22 0 -16 4 -37 8 -47 7 -20 8 -20 13 0 5 18 28 25 199 54 177 32 214
35 431 38 l237 3 0 69 c0 51 -4 70 -14 70 -7 0 -15 -8 -18 -19 -4 -17 -19 -19
-183 -23 -99 -3 -190 -10 -204 -16 -19 -8 23 -11 183 -11 200 -1 207 -2 207
-21 0 -20 -7 -20 -295 -20 l-295 0 0 23 c0 12 -3 39 -6 60 -5 24 -3 37 5 37 6
0 11 -11 11 -25 0 -21 5 -25 28 -24 24 0 25 1 7 10 -15 7 -10 8 20 4 22 -2 58
0 80 4 22 5 34 9 27 10 -21 2 -3 21 19 21 11 0 18 -4 14 -9 -7 -13 122 -4 200
14 33 8 110 22 170 32 86 14 103 19 75 23 -26 4 -36 11 -41 30 -4 16 -7 19 -8
8 -1 -21 -21 -23 -40 -5 -10 10 -12 9 -9 -3 2 -10 -4 -15 -19 -14 -13 0 -23
-3 -23 -8 0 -4 -7 -8 -15 -8 -9 0 -15 9 -15 21 0 19 -4 21 -32 15 -18 -4 -89
-15 -157 -26 -68 -10 -127 -23 -130 -28 -3 -6 -23 -13 -44 -17 -31 -6 -37 -4
-37 10 0 14 -5 16 -27 10 -24 -7 -124 -8 -130 -2 -1 2 2 9 7 17 7 12 35 15
122 17 63 1 160 10 218 21 l105 20 -347 1 -347 1 -3 -22z"/>
<path d="M2455 335 c-5 -2 -54 -11 -107 -20 l-98 -17 0 -30 c0 -29 2 -30 32
-24 18 3 56 9 85 13 50 5 53 4 53 -16 0 -23 -9 -29 -55 -35 -16 -2 -49 -7 -73
-11 l-43 -8 6 -38 7 -39 -214 0 c-148 0 -240 -5 -302 -16 -50 -8 -98 -13 -108
-11 -19 5 -26 -9 -7 -15 5 -2 -72 -17 -173 -35 l-183 -31 603 -1 602 -1 0 170
c0 94 -3 170 -7 169 -5 0 -12 -2 -18 -4z"/>
</g>
</svg>
