<?xml version="1.0" standalone="no"?>
<!DOCTYPE svg PUBLIC "-//W3C//DTD SVG 20010904//EN"
 "http://www.w3.org/TR/2001/REC-SVG-20010904/DTD/svg10.dtd">
<svg version="1.0" xmlns="http://www.w3.org/2000/svg"
 width="200.000000pt" height="200.000000pt" viewBox="0 0 200.000000 200.000000"
 preserveAspectRatio="xMidYMid meet">
<metadata>
Created by potrace 1.16, written by Peter Selinger 2001-2019
</metadata>
<g transform="translate(0.000000,200.000000) scale(0.100000,-0.100000)"
fill="#000000" stroke="none">
<path d="M0 1313 l0 -687 22 21 c18 18 21 32 20 85 l-2 63 69 72 68 73 -5 142
c-2 79 -9 145 -13 146 -12 5 -11 46 0 58 6 5 11 34 13 64 l3 55 46 -3 c43 -2
48 0 88 43 23 25 40 49 37 54 -3 5 22 38 55 75 43 46 68 66 85 66 22 0 24 -4
24 -45 0 -42 -5 -50 -71 -120 l-72 -75 56 0 57 0 143 148 c79 81 187 193 242
250 86 89 102 102 132 102 28 0 33 -4 33 -23 0 -26 -72 -102 -84 -90 -4 5 -6
3 -4 -2 6 -18 -96 -134 -119 -134 -30 -1 -143 -119 -143 -151 0 -15 -17 -42
-47 -72 -26 -26 -42 -48 -37 -48 6 0 32 23 57 50 40 43 51 50 84 50 l37 0 -37
-38 c-23 -24 -37 -47 -36 -62 0 -23 1 -23 9 -5 11 28 61 72 85 77 11 2 20 8
20 13 0 6 33 41 73 79 39 38 72 75 72 84 0 8 -8 25 -17 36 -18 21 -18 21 4 3
13 -12 27 -16 35 -11 10 6 11 5 1 -8 -7 -8 -10 -18 -7 -21 4 -4 -52 -66 -125
-140 -115 -117 -147 -157 -125 -157 3 0 19 11 36 25 19 16 42 25 64 25 29 0
43 9 89 58 30 31 54 53 55 49 0 -4 -21 -30 -46 -57 l-47 -50 60 0 c41 0 64 -5
73 -15 18 -22 30 -9 30 32 0 30 12 48 91 134 61 65 92 107 93 124 0 14 4 25 7
25 3 0 11 11 17 25 10 21 19 25 52 25 35 0 40 -3 40 -23 0 -26 -67 -94 -90
-92 -19 2 -109 -82 -121 -113 -5 -12 -14 -21 -21 -20 -8 2 -14 -9 -16 -24 -2
-14 -10 -32 -18 -38 -25 -22 -16 -40 19 -40 25 0 41 8 64 35 25 28 38 35 69
35 l38 0 -27 -28 c-15 -15 -27 -31 -27 -34 0 -3 20 -6 44 -6 39 -1 49 3 74 33
22 24 36 32 51 28 27 -7 17 -23 -14 -23 -27 0 -42 -16 -23 -23 13 -5 6 -8 -37
-22 -11 -3 -15 -19 -15 -62 l1 -58 57 63 c47 52 62 62 89 62 28 0 50 20 192
167 116 120 161 173 161 190 0 17 4 22 13 17 8 -5 7 -2 -2 9 -8 10 -11 20 -7
24 3 3 6 2 6 -3 0 -5 23 -8 51 -8 40 1 56 7 78 28 15 14 37 26 49 26 21 0 22
4 22 85 l0 85 -124 0 c-120 0 -124 -1 -130 -22 -8 -32 -66 -91 -100 -103 -32
-11 -66 -50 -70 -81 -2 -10 -8 -20 -14 -20 -7 -1 -16 -2 -22 -3 -5 0 -10 -8
-10 -16 0 -9 -10 -19 -23 -24 -30 -12 -51 -37 -41 -52 4 -7 3 -9 -3 -6 -21 13
-53 -32 -53 -77 0 -34 -6 -48 -30 -71 l-30 -29 0 26 c0 22 -5 26 -40 32 -22 3
-40 11 -40 16 0 6 -7 10 -16 10 -8 0 -12 4 -9 10 4 6 18 1 35 -11 34 -26 50
-18 50 23 0 36 14 54 173 218 67 69 133 137 146 153 l24 27 -836 0 -837 0 0
-687z m1830 558 c0 -61 -10 -78 -42 -73 -9 2 -19 -2 -23 -8 -11 -17 -25 -11
-26 13 -1 12 -5 4 -8 -17 -7 -45 -27 -59 -34 -24 -3 15 -5 10 -6 -14 -2 -64
-21 -55 -21 10 0 58 1 61 53 115 38 41 59 56 80 56 26 1 27 0 27 -58z m-600
-105 c0 -73 0 -74 -25 -72 -20 1 -25 6 -25 29 0 15 -4 27 -10 27 -5 0 -10 -20
-10 -44 0 -26 -6 -48 -14 -56 -13 -10 -15 -3 -18 47 -4 68 -19 78 -62 38 -15
-14 -31 -25 -37 -25 -5 0 -7 -11 -3 -24 4 -16 1 -25 -10 -29 -13 -5 -15 -1
-10 21 4 15 14 33 23 40 9 7 26 22 39 32 12 11 30 20 40 20 11 0 33 16 51 35
17 19 40 35 51 35 18 0 20 -7 20 -74z m380 -101 c0 -31 -10 -46 -77 -114 -69
-71 -83 -80 -122 -84 l-44 -6 119 120 c65 65 120 119 121 119 2 0 3 -16 3 -35z"/>
<path d="M1982 1748 c-7 -7 -12 -8 -12 -4 0 5 -7 3 -15 -4 -8 -7 -12 -16 -10
-20 7 -11 -223 -250 -238 -247 -5 1 -12 -15 -14 -35 l-4 -38 65 0 66 0 0 -142
1 -143 40 47 c50 58 89 66 89 19 0 -21 -16 -46 -65 -99 l-65 -70 0 -186 0
-186 -167 -1 c-93 -1 -172 -1 -176 0 -5 1 -6 -3 -2 -8 3 -6 -28 -46 -70 -89
-56 -59 -75 -86 -75 -106 0 -20 -16 -45 -56 -87 -31 -32 -60 -57 -64 -54 -9 6
-42 -30 -35 -37 3 -3 -48 -61 -114 -129 -67 -68 -121 -125 -121 -126 0 -2 239
-3 530 -3 l530 0 0 880 c0 484 -1 880 -3 880 -2 0 -8 -5 -15 -12z"/>
<path d="M1799 1703 c-1 -5 -1 -11 0 -15 0 -5 -5 -8 -12 -8 -8 0 -78 -66 -158
-147 l-144 -148 39 -3 c33 -3 44 2 77 34 22 21 39 43 39 49 0 5 45 55 100 110
98 99 120 135 80 135 -11 0 -21 -3 -21 -7z"/>
<path d="M212 1203 l3 -168 83 -3 82 -3 0 -174 0 -175 52 0 c48 0 56 4 95 42
l43 42 43 -42 43 -42 142 0 142 0 0 158 1 157 69 -72 70 -73 0 -85 0 -85 355
0 355 0 -2 163 -3 162 -123 3 c-157 3 -154 22 4 22 l114 0 -2 163 -3 162 -60
2 c-33 1 -98 5 -144 9 l-83 6 -104 -103 -103 -103 -3 100 -3 99 -97 3 -98 3 0
-46 c0 -25 -3 -45 -6 -45 -4 0 -25 21 -47 46 l-40 46 -98 -4 c-93 -3 -99 -5
-129 -33 l-31 -29 -31 33 -32 34 -185 -7 c-102 -4 -190 -8 -196 -8 -5 -1 -25
2 -43 6 l-32 8 2 -169z m263 60 l74 -78 1 -142 0 -143 -36 -40 c-29 -32 -43
-40 -70 -40 l-34 0 0 175 0 175 -85 0 -85 0 0 85 0 85 81 0 80 0 74 -77z m224
38 c17 -21 31 -51 31 -65 0 -26 0 -26 -83 -26 l-83 0 -64 65 -64 65 116 0 116
0 31 -39z m414 -106 l138 -144 -3 -118 -3 -118 -70 0 -70 0 -3 84 -3 83 -94
97 -94 96 -1 -82 0 -83 -75 0 -75 0 0 139 c0 125 2 141 21 165 19 25 25 26
107 26 l87 -1 138 -144z m135 68 l-3 -78 -41 -3 c-36 -3 -45 1 -73 33 -23 27
-31 45 -31 74 0 21 3 41 7 44 3 4 37 7 75 7 l69 0 -3 -77z m512 -8 l0 -85
-109 0 -109 0 -56 -64 c-43 -48 -56 -71 -56 -95 l0 -31 165 0 166 0 -3 -82 -3
-83 -235 0 -235 0 -3 155 -3 154 108 108 108 108 132 0 133 0 0 -85z m-1030
-175 l0 -100 90 0 90 0 0 -80 0 -80 -123 0 -123 0 -39 40 -40 41 -3 125 c-2
69 -1 132 2 140 4 10 24 14 76 14 l70 0 0 -100z"/>
<path d="M291 994 c-14 -18 -21 -41 -21 -73 0 -44 -4 -50 -57 -101 l-58 -55
48 50 c32 35 47 59 47 78 0 35 -18 35 -22 0 -4 -31 -24 -42 -31 -16 -3 10 -5
4 -6 -14 -1 -34 -16 -52 -24 -31 -3 7 -6 3 -6 -8 -1 -27 -27 -51 -34 -32 -3 7
-6 0 -6 -16 -1 -20 -5 -27 -15 -23 -9 4 -15 -5 -20 -31 -3 -20 -3 -38 0 -41 3
-4 61 51 128 120 67 69 130 128 140 132 13 5 16 16 14 44 -3 33 -7 38 -29 41
-19 2 -33 -4 -48 -24z"/>
<path d="M202 773 c-51 -55 -77 -92 -71 -97 5 -6 9 -17 9 -26 0 -21 -41 -60
-63 -60 -9 0 -23 -13 -32 -30 -9 -16 -22 -30 -30 -30 -13 0 -15 -23 -15 -140
0 -77 4 -140 8 -140 15 0 82 76 82 93 0 10 33 53 74 95 41 42 73 79 70 81 -2
3 -17 -8 -32 -22 -37 -35 -82 -37 -82 -4 0 13 11 34 25 47 16 15 25 34 25 54
0 20 10 41 32 63 31 32 31 33 12 49 -10 9 -2 6 18 -5 23 -14 39 -18 43 -11 3
5 26 10 51 10 37 0 44 3 44 20 0 11 -7 20 -15 20 -19 0 -19 14 1 30 10 9 14
26 12 49 -3 34 -5 36 -44 39 -40 3 -43 1 -122 -85z"/>
<path d="M1002 752 c-28 -33 -52 -68 -52 -76 0 -9 -8 -16 -18 -16 -10 0 -49
-31 -87 -70 -63 -63 -73 -70 -109 -70 -38 0 -39 0 -21 20 10 11 28 20 40 20
14 0 37 18 64 50 50 59 37 68 -15 10 -49 -54 -72 -53 -77 3 -3 42 -4 42 -5 -8
-2 -47 -6 -54 -58 -105 -30 -30 -88 -91 -127 -135 l-71 -80 60 58 c53 51 64
57 102 57 23 0 42 -3 42 -7 0 -4 -12 -20 -27 -35 -15 -15 -22 -28 -16 -28 5 0
38 29 72 65 35 36 65 65 67 65 2 0 4 -9 4 -20 0 -10 7 -23 15 -27 13 -8 10
-14 -15 -38 -32 -30 -40 -69 -16 -78 8 -3 22 3 32 14 9 10 25 19 35 19 9 0 41
20 70 45 28 24 55 42 59 40 4 -2 31 22 61 53 30 31 37 41 17 22 -68 -62 -40
-16 37 60 41 41 75 69 75 62 0 -8 5 -10 13 -6 6 4 -12 -18 -42 -49 l-54 -55 5
-157 c4 -147 14 -195 33 -164 5 8 4 10 -3 5 -8 -5 -12 5 -12 34 0 40 6 48 153
202 83 87 158 170 165 184 7 13 17 24 23 24 6 0 7 5 4 10 -3 6 -37 10 -75 10
-38 0 -72 -4 -75 -10 -3 -6 -51 -10 -110 -10 l-103 0 -73 -77 c-40 -43 -65
-67 -56 -53 9 13 17 33 17 43 0 10 26 46 57 80 l57 62 -52 -50 -52 -49 0 44
c0 40 5 50 51 96 28 29 50 57 47 64 -2 6 -27 -15 -56 -48z"/>
<path d="M523 695 c-20 -25 -45 -45 -55 -45 -10 0 -18 -7 -18 -15 0 -8 -7 -15
-15 -15 -18 0 -19 12 -3 28 9 9 5 12 -20 12 -18 0 -41 6 -52 12 -18 11 -26 6
-80 -47 -33 -33 -60 -67 -60 -75 0 -9 11 -23 25 -30 22 -12 28 -11 48 8 19 18
35 22 89 22 l65 0 77 81 c63 66 75 83 65 95 -17 21 -25 18 -66 -31z"/>
<path d="M265 410 c-26 -27 -53 -46 -58 -43 -6 3 -7 1 -3 -5 10 -17 -152 -182
-180 -182 -24 0 -24 -2 -24 -90 l0 -90 435 0 435 0 0 48 c0 43 5 54 45 98 29
31 42 54 38 64 -4 8 -9 39 -11 68 -5 67 -22 68 -82 7 -34 -35 -51 -45 -76 -45
-32 0 -45 -12 -80 -75 -6 -11 -23 -21 -38 -23 -23 -3 -26 0 -26 29 l0 33 -30
-29 c-16 -16 -30 -25 -30 -21 0 5 -7 3 -15 -4 -8 -7 -13 -16 -10 -20 8 -13
-23 -32 -47 -28 -15 2 -24 11 -26 27 -3 18 9 35 52 73 58 51 66 65 42 65 -8 0
-14 -5 -13 -11 1 -6 -18 -12 -43 -14 -27 -2 -53 -11 -66 -23 -11 -10 -24 -16
-28 -12 -4 5 -6 3 -4 -4 2 -7 -21 -39 -50 -72 -44 -50 -59 -61 -84 -61 -30 0
-30 0 -24 42 4 24 19 55 35 74 26 29 30 42 36 131 6 79 11 102 28 121 l20 22
-34 0 c-28 0 -44 -9 -84 -50z"/>
</g>
</svg>
